<svg id="Layer_1" data-name="Layer 1" xmlns="http://www.w3.org/2000/svg" viewBox="0 0 611.12 258.21"><defs><style>.cls-1{fill:#ffffff;}</style></defs><path class="cls-1" d="M799.37,389l3.77-10.57a49.31,49.31,0,0,0-26.27-7.55c-21.6,0-35,12.68-35,29.74,0,16.46,10,26.13,26.87,27.94l7.25.75c12.69,1.36,17.37,9.52,17.37,19.18,0,11.48-7.25,19.48-21.6,19.48-9.36,0-18.87-3.32-25.51-9.21l-4.53,10.57c7.4,6.19,19,10.27,30.65,10.27,20.69,0,33.22-13.59,33.22-31.87,0-16.45-9.82-28.23-28.09-30.2l-7.25-.75c-9.66-1.06-16-6.19-16-16.91,0-10.42,8-17.67,22.5-17.67a39.83,39.83,0,0,1,22.65,6.8ZM679.16,399.89c0-10.42,8-17.67,22.5-17.67a39.83,39.83,0,0,1,22.65,6.8l3.77-10.57a49.31,49.31,0,0,0-26.27-7.55c-21.59,0-35,12.68-35,29.74,0,16.46,10,26.13,26.88,27.94l7.25.75c12.68,1.36,17.36,9.52,17.36,19.18C718.27,460,711,468,696.68,468c-9.37,0-18.88-3.32-25.52-9.21l-4.53,10.57c7.4,6.19,19,10.27,30.65,10.27,20.69,0,33.22-13.59,33.22-31.87,0-16.45-9.81-28.23-28.09-30.2l-7.24-.75c-9.67-1.06-16-6.19-16-16.91ZM645.84,629.1h19.63V523.41H642.82V567.2l2.27,13.28a1.29,1.29,0,0,1-2.42.91l-33.07-58H590V629.1h22.65V585.32L610.51,572a1.29,1.29,0,0,1,2.41-.91l32.92,58Zm-55-151h60.85V466.33H602.67V431.14h46.51V419.37H602.67V384.18h49.07V372.41H590.89v105.7Zm-36.7,151h24L552.53,523.41H503.45V543h11L493.64,629.1h24l5.13-24.46h26.27l5.14,24.46ZM544.83,585H527l6.49-31,1.06-9.51a1.36,1.36,0,1,1,2.72,0l1.05,9.51,6.5,31ZM556,478.11H568V372.41H556v71.72l1.66,10.12c.15,1.36-1.2,2.26-2,.75l-44.24-82.59H501.14v105.7h12.08v-67.8l-1.51-9.82c-.3-1.66,1.21-2.26,2.11-.45L556,478.11Zm-124.63,151h53.46V608h-29.3V523.41H431.32V629.1Zm3.7-151h48.77V466.63H465.67V383.88h18.12V372.41H435v11.47h18.12v82.75H435v11.48Zm-64.23-78.22c0-10.42,8-17.67,22.5-17.67a39.85,39.85,0,0,1,22.65,6.8l3.77-10.57a49.31,49.31,0,0,0-26.27-7.55c-21.6,0-35,12.68-35,29.74,0,16.46,10,26.13,26.87,27.94l7.25.75c12.69,1.36,17.37,9.52,17.37,19.18,0,11.48-7.25,19.48-21.6,19.48-9.36,0-18.87-3.32-25.52-9.21l-4.53,10.57c7.4,6.19,19,10.27,30.66,10.27,20.68,0,33.22-13.59,33.22-31.87,0-16.45-9.82-28.23-28.09-30.2l-7.25-.75c-9.66-1.06-16-6.19-16-16.91ZM390,581.39l-33.07-58H337.3V629.1H360V585.32L357.83,572a1.29,1.29,0,0,1,2.42-.91l32.92,58H412.8V523.41H390.15V567.2l2.26,13.28a1.29,1.29,0,0,1-2.41.91ZM341.53,447.75l.15-75.34H329v75.34c0,12.08-8.3,20.39-20.53,20.39s-20.54-8.31-20.54-20.39l.15-75.34H275.39v75.34c0,18.88,13.44,31.87,33.07,31.87s33.07-13,33.07-31.87Zm-19.38,75.66H270.36V543h13.89v66.43H270.36V629.1h51.79V609.47H308.26V543h13.89V523.41ZM218.6,544.55h40.77V523.41H194.44V629.1H218.6V586.83h38.2V565.69H218.6V544.55Zm23.26-120c8.75-4.08,14.34-12.23,14.34-23.4,0-18.28-10.72-28.69-29-28.69H194.44v105.7h32.77c19.63,0,31.1-10.42,31.1-28.69,0-11.93-6.34-21.3-16.45-24.92Zm-14.5-4.68H206.22V383h21.14c10.87,0,17.06,6.94,17.06,18.12,0,11.77-6.19,18.72-17.06,18.72Zm19.18,29.6c0,11.32-6.95,18.12-19.18,18.12H206.22V430.39h21.14c12.23,0,19.18,7.1,19.18,19Zm468.26,74H684V629.1h30.8c26.27,0,40.32-13.43,42-34.72.45-5.44.75-12.24.75-18.12s-.3-12.69-.75-18.12c-1.81-21.3-15.71-34.73-42-34.73ZM708.16,543h6.64c13,0,18.87,8,19.78,18.27a132.26,132.26,0,0,1,.6,15,130.78,130.78,0,0,1-.6,14.94c-1.06,10.27-6.79,18.27-19.78,18.27h-6.64V543Z" transform="translate(-194.44 -370.9)"/></svg>