<?xml version="1.0" encoding="UTF-8" standalone="no"?>
<!-- Created with Inkscape (http://www.inkscape.org/) -->

<svg
   version="1.1"
   id="svg1"
   width="345.33334"
   height="121.33333"
   viewBox="0 0 345.33334 121.33333"
   sodipodi:docname="ELY_LN04_nega___FI_V___NEGA.eps"
   xmlns:inkscape="http://www.inkscape.org/namespaces/inkscape"
   xmlns:sodipodi="http://sodipodi.sourceforge.net/DTD/sodipodi-0.dtd"
   xmlns="http://www.w3.org/2000/svg"
   xmlns:svg="http://www.w3.org/2000/svg">
  <defs
     id="defs1" />
  <sodipodi:namedview
     id="namedview1"
     pagecolor="#ffffff"
     bordercolor="#000000"
     borderopacity="0.25"
     inkscape:showpageshadow="2"
     inkscape:pageopacity="0.0"
     inkscape:pagecheckerboard="0"
     inkscape:deskcolor="#d1d1d1">
    <inkscape:page
       x="0"
       y="0"
       inkscape:label="1"
       id="page1"
       width="345.33334"
       height="121.33333"
       margin="0"
       bleed="0" />
  </sodipodi:namedview>
  <g
     id="g1"
     inkscape:groupmode="layer"
     inkscape:label="1">
    <path
       id="path1"
       d="m 171.484,741.16 c 0,0 -43.918,-121.808 115.028,-136.254 72.633,-6.605 195.265,37.907 348.937,-82.676 75.934,-59.593 70.125,-133.25 49.047,-188.156 -1.543,-8.797 -3.863,-16.371 -7.199,-23.84 19.273,33.817 40.637,80.485 50.801,130.051 25.89,126.207 -32.274,271.797 -404.879,269.227 -106.336,-3.063 -146.5,30.601 -151.735,31.648"
       style="fill:#ffffff;fill-opacity:1;fill-rule:evenodd;stroke:none"
       transform="matrix(0.13333333,0,0,-0.13333333,0,121.33333)" />
    <path
       id="path2"
       d="m 353.063,497.961 v 0 c 0,0 -88.594,-381.84 169.324,-297.258 12.687,0.621 67.758,20.684 67.414,20.481 -23.727,-13.852 -54.25,-27.442 -86.418,-39.911 C 358.012,124.91 165.551,127.371 273.531,590.367 l 79.532,-92.406"
       style="fill:#ffffff;fill-opacity:1;fill-rule:evenodd;stroke:none"
       transform="matrix(0.13333333,0,0,-0.13333333,0,121.33333)" />
    <path
       id="path3"
       d="m 2079.73,296.422 c -0.72,20.16 -15.49,29.879 -34.03,29.879 -16.38,0 -34.9,-7.203 -34.9,-26.098 0,-15.84 11.16,-20.879 25.9,-24.844 l 14.59,-3.238 c 10.26,-2.516 20.34,-6.121 20.34,-16.914 0,-12.957 -14.77,-17.637 -25.38,-17.637 -15.12,0 -26.46,7.922 -27.36,23.219 h -11.34 c 1.8,-22.68 16.56,-32.762 38.15,-32.762 17.28,0 37.26,7.746 37.26,27.895 0,16.199 -13.49,23.769 -26.46,25.742 l -15.11,3.422 c -7.75,1.984 -19.26,5.574 -19.26,15.66 0,12.059 11.89,16.012 21.96,16.012 12.96,0 23.76,-6.297 24.29,-20.336 h 11.35"
       style="fill:#ffffff;fill-opacity:1;fill-rule:evenodd;stroke:none"
       transform="matrix(0.13333333,0,0,-0.13333333,0,121.33333)" />
    <path
       id="path4"
       d="m 1994.05,323.602 h -11.34 v -48.774 c 0,-18.906 -8.45,-37.258 -27.89,-37.258 -18,0 -24.3,8.817 -24.84,25.547 v 60.485 h -11.34 v -60.293 c 0,-21.598 9.18,-35.282 32.58,-35.282 13.87,0 26.1,7.02 32.03,19.446 h 0.37 V 230.73 h 10.43 v 92.872"
       style="fill:#ffffff;fill-opacity:1;fill-rule:evenodd;stroke:none"
       transform="matrix(0.13333333,0,0,-0.13333333,0,121.33333)" />
    <path
       id="path5"
       d="m 1831.54,230.73 h 11.34 V 266 l 18.35,15.309 36.72,-50.579 h 14.21 l -42.29,58.497 39.59,34.375 h -15.12 l -51.46,-44.993 v 80.618 h -11.34 V 230.73"
       style="fill:#ffffff;fill-opacity:1;fill-rule:evenodd;stroke:none"
       transform="matrix(0.13333333,0,0,-0.13333333,0,121.33333)" />
    <path
       id="path6"
       d="m 1814.61,296.422 c -0.71,20.16 -15.47,29.879 -34,29.879 -16.39,0 -34.93,-7.203 -34.93,-26.098 0,-15.84 11.16,-20.879 25.92,-24.844 l 14.58,-3.238 c 10.27,-2.516 20.34,-6.121 20.34,-16.914 0,-12.957 -14.76,-17.637 -25.38,-17.637 -15.12,0 -26.45,7.922 -27.35,23.219 h -11.34 c 1.8,-22.68 16.55,-32.762 38.16,-32.762 17.27,0 37.25,7.746 37.25,27.895 0,16.199 -13.5,23.769 -26.45,25.742 l -15.13,3.422 c -7.74,1.984 -19.26,5.574 -19.26,15.66 0,12.059 11.88,16.012 21.97,16.012 12.94,0 23.75,-6.297 24.29,-20.336 h 11.33"
       style="fill:#ffffff;fill-opacity:1;fill-rule:evenodd;stroke:none"
       transform="matrix(0.13333333,0,0,-0.13333333,0,121.33333)" />
    <path
       id="path7"
       d="m 1663.62,283.633 c 1.79,16.926 12.06,33.125 30.59,33.125 18.37,0 28.97,-16.012 29.53,-33.125 z m 71.45,-9.528 c 0.9,26.098 -10.98,52.196 -40.86,52.196 -29.51,0 -41.92,-24.656 -41.92,-49.133 0,-26.469 12.41,-49.141 41.92,-49.141 23.4,0 35.65,12.239 40.49,33.301 h -11.33 c -3.6,-14.043 -12.6,-23.758 -29.16,-23.758 -21.78,0 -30.41,19.981 -30.59,36.535 h 71.45"
       style="fill:#ffffff;fill-opacity:1;fill-rule:evenodd;stroke:none"
       transform="matrix(0.13333333,0,0,-0.13333333,0,121.33333)" />
    <path
       id="path8"
       d="m 1569.66,230.73 h 11.35 V 266 l 18.35,15.309 36.72,-50.579 h 14.22 l -42.3,58.497 39.59,34.375 h -15.11 l -51.47,-44.993 v 80.618 h -11.35 V 230.73"
       style="fill:#ffffff;fill-opacity:1;fill-rule:evenodd;stroke:none"
       transform="matrix(0.13333333,0,0,-0.13333333,0,121.33333)" />
    <path
       id="path9"
       d="m 1501.81,357.793 h -12.24 v -18.176 h 12.24 v 18.176"
       style="fill:#ffffff;fill-opacity:1;fill-rule:evenodd;stroke:none"
       transform="matrix(0.13333333,0,0,-0.13333333,0,121.33333)" />
    <path
       id="path10"
       d="m 1533.67,357.793 h -12.24 v -18.176 h 12.24 v 18.176"
       style="fill:#ffffff;fill-opacity:1;fill-rule:evenodd;stroke:none"
       transform="matrix(0.13333333,0,0,-0.13333333,0,121.33333)" />
    <path
       id="path11"
       d="m 1511.53,316.758 c 21.78,0 32.58,-19.805 32.58,-39.59 0,-19.793 -10.8,-39.598 -32.58,-39.598 -21.77,0 -32.58,19.805 -32.58,39.598 0,19.785 10.81,39.59 32.58,39.59 z m 0,9.543 c -28.43,0 -43.91,-22.504 -43.91,-49.133 0,-26.641 15.48,-49.141 43.91,-49.141 28.43,0 43.92,22.5 43.92,49.141 0,26.629 -15.49,49.133 -43.92,49.133"
       style="fill:#ffffff;fill-opacity:1;fill-rule:evenodd;stroke:none"
       transform="matrix(0.13333333,0,0,-0.13333333,0,121.33333)" />
    <path
       id="path12"
       d="m 1439.72,351.5 h -11.33 v -27.898 h -16.2 v -9.543 h 16.2 v -63.532 c -0.19,-15.828 5.04,-20.875 20.15,-20.875 3.42,0 6.66,0.356 10.08,0.356 v 9.719 c -3.24,-0.36 -6.47,-0.543 -9.71,-0.543 -8.11,0.543 -9.19,4.863 -9.19,12.242 v 62.633 h 18.9 v 9.543 h -18.9 V 351.5"
       style="fill:#ffffff;fill-opacity:1;fill-rule:evenodd;stroke:none"
       transform="matrix(0.13333333,0,0,-0.13333333,0,121.33333)" />
    <path
       id="path13"
       d="m 1404.81,296.422 c -0.72,20.16 -15.48,29.879 -34.02,29.879 -16.37,0 -34.91,-7.203 -34.91,-26.098 0,-15.84 11.16,-20.879 25.92,-24.844 l 14.58,-3.238 c 10.25,-2.516 20.33,-6.121 20.33,-16.914 0,-12.957 -14.77,-17.637 -25.38,-17.637 -15.12,0 -26.45,7.922 -27.36,23.219 h -11.33 c 1.79,-22.68 16.55,-32.762 38.15,-32.762 17.27,0 37.26,7.746 37.26,27.895 0,16.199 -13.5,23.769 -26.45,25.742 l -15.13,3.422 c -7.74,1.984 -19.26,5.574 -19.26,15.66 0,12.059 11.88,16.012 21.96,16.012 12.97,0 23.76,-6.297 24.3,-20.336 h 11.34"
       style="fill:#ffffff;fill-opacity:1;fill-rule:evenodd;stroke:none"
       transform="matrix(0.13333333,0,0,-0.13333333,0,121.33333)" />
    <path
       id="path14"
       d="m 1307.45,341.055 h 11.33 v 18.179 h -11.33 v -18.179"
       style="fill:#ffffff;fill-opacity:1;fill-rule:evenodd;stroke:none"
       transform="matrix(0.13333333,0,0,-0.13333333,0,121.33333)" />
    <path
       id="path15"
       d="m 1307.45,230.73 h 11.33 v 92.872 h -11.33 V 230.73"
       style="fill:#ffffff;fill-opacity:1;fill-rule:evenodd;stroke:none"
       transform="matrix(0.13333333,0,0,-0.13333333,0,121.33333)" />
    <path
       id="path16"
       d="m 1253.27,230.73 h 11.34 v 49.493 c 0,19.261 14.04,34.379 34.56,33.304 v 11.332 c -16.74,0.715 -29.34,-8.101 -35.1,-23.043 h -0.36 v 21.786 h -10.44 V 230.73"
       style="fill:#ffffff;fill-opacity:1;fill-rule:evenodd;stroke:none"
       transform="matrix(0.13333333,0,0,-0.13333333,0,121.33333)" />
    <path
       id="path17"
       d="m 1188.66,357.793 h -12.24 v -18.176 h 12.24 v 18.176"
       style="fill:#ffffff;fill-opacity:1;fill-rule:evenodd;stroke:none"
       transform="matrix(0.13333333,0,0,-0.13333333,0,121.33333)" />
    <path
       id="path18"
       d="m 1220.52,357.793 h -12.24 v -18.176 h 12.24 v 18.176"
       style="fill:#ffffff;fill-opacity:1;fill-rule:evenodd;stroke:none"
       transform="matrix(0.13333333,0,0,-0.13333333,0,121.33333)" />
    <path
       id="path19"
       d="m 1172.82,295.164 c 0.35,15.121 10.79,21.594 24.84,21.594 13.31,0 24.3,-3.781 24.3,-19.082 0,-10.258 -5.23,-11.512 -14.58,-12.59 -24.48,-2.879 -49.85,-3.777 -49.85,-29.879 0,-18.723 14.04,-27.18 31.13,-27.18 17.82,0 25.92,6.848 33.84,18.907 h 0.36 c 0,-9.719 1.8,-16.204 13.31,-16.204 3.06,0 4.87,0.176 7.38,0.719 v 9.543 c -0.9,-0.363 -2.34,-0.726 -3.6,-0.726 -4.5,0 -6.66,2.515 -6.66,6.847 v 49.309 c 0,24.832 -17.81,29.879 -34.19,29.879 -21.25,0 -36.55,-9.363 -37.62,-31.137 z m 49.14,-28.441 c 0.17,-18.18 -15.13,-29.153 -32.41,-29.153 -10.62,0 -20.69,7.02 -20.69,18.352 0,18.183 23.94,18.004 43.21,21.418 3.04,0.543 8.08,1.441 9.53,4.14 h 0.36 v -14.757"
       style="fill:#ffffff;fill-opacity:1;fill-rule:evenodd;stroke:none"
       transform="matrix(0.13333333,0,0,-0.13333333,0,121.33333)" />
    <path
       id="path20"
       d="m 1061.96,196.355 h 11.34 v 52.016 h 0.35 c 4.87,-13.324 18.35,-20.344 32.22,-20.344 28.26,0 41.76,22.86 41.76,49.141 0,26.273 -13.5,49.133 -41.76,49.133 -14.94,0 -27.91,-7.738 -33.12,-20.348 h -0.36 v 17.649 h -10.43 z m 74.33,80.813 c 0,-19.262 -8.82,-39.598 -30.42,-39.598 -24.12,0 -32.57,20.336 -32.57,39.598 0,21.059 7.54,39.59 32.57,39.59 21.6,0 30.42,-20.336 30.42,-39.59"
       style="fill:#ffffff;fill-opacity:1;fill-rule:evenodd;stroke:none"
       transform="matrix(0.13333333,0,0,-0.13333333,0,121.33333)" />
    <path
       id="path21"
       d="m 914.734,230.73 h 11.336 v 51.833 c 0.18,19.437 8.102,34.195 27.715,34.195 14.406,0 19.617,-10.434 19.434,-23.035 V 230.73 h 11.34 v 52.551 c 0,17.278 5.582,33.477 25.211,33.477 16.19,0 21.95,-8.278 21.95,-23.574 V 230.73 h 11.33 v 62.993 c 0,21.957 -10.44,32.578 -30.77,32.578 -12.24,0 -23.94,-5.949 -29.514,-18.176 -3.418,12.227 -14.399,18.176 -26.641,18.176 -14.758,0 -24.477,-7.203 -30.402,-18.363 h -0.551 v 15.664 H 914.734 V 230.73"
       style="fill:#ffffff;fill-opacity:1;fill-rule:evenodd;stroke:none"
       transform="matrix(0.13333333,0,0,-0.13333333,0,121.33333)" />
    <path
       id="path22"
       d="m 860.742,231.09 -3.969,-10.617 c -3.769,-8.645 -6.109,-14.582 -16.195,-14.582 -2.515,0 -5.039,0.371 -7.726,0.898 v -9.535 c 1.789,-0.723 4.14,-0.723 8.625,-0.899 14.222,0 18.003,4.5 24.48,20.165 l 40.328,107.082 h -11.351 l -28.625,-79.196 -30.575,79.196 h -12.07 l 37.078,-92.512"
       style="fill:#ffffff;fill-opacity:1;fill-rule:evenodd;stroke:none"
       transform="matrix(0.13333333,0,0,-0.13333333,0,121.33333)" />
    <path
       id="path23"
       d="m 2352.21,475.137 c 0.36,15.125 10.79,21.597 24.83,21.597 13.33,0 24.3,-3.773 24.3,-19.066 0,-10.273 -5.21,-11.527 -14.57,-12.609 -24.48,-2.879 -49.86,-3.774 -49.86,-29.875 0,-18.711 14.04,-27.184 31.14,-27.184 17.82,0 25.91,6.848 33.84,18.906 h 0.35 c 0,-9.718 1.81,-16.195 13.33,-16.195 3.06,0 4.86,0.172 7.38,0.723 v 9.535 c -0.91,-0.36 -2.34,-0.727 -3.6,-0.727 -4.51,0 -6.66,2.528 -6.66,6.844 v 49.309 c 0,24.843 -17.81,29.882 -34.19,29.882 -21.25,0 -36.55,-9.359 -37.62,-31.14 z m 49.13,-28.438 c 0.19,-18.179 -15.11,-29.14 -32.39,-29.14 -10.62,0 -20.7,7.015 -20.7,18.351 0,18.168 23.94,17.988 43.19,21.414 3.07,0.535 8.1,1.438 9.54,4.141 h 0.36 v -14.766"
       style="fill:#ffffff;fill-opacity:1;fill-rule:evenodd;stroke:none"
       transform="matrix(0.13333333,0,0,-0.13333333,0,121.33333)" />
    <path
       id="path24"
       d="m 2311.54,521.035 h 11.34 v 18.18 h -11.34 v -18.18"
       style="fill:#ffffff;fill-opacity:1;fill-rule:evenodd;stroke:none"
       transform="matrix(0.13333333,0,0,-0.13333333,0,121.33333)" />
    <path
       id="path25"
       d="m 2311.54,399.375 c 0,-7.746 -1.44,-13.5 -10.26,-13.5 -1.81,-0.184 -4.32,0 -6.12,0.18 v -9.356 c 2.7,0 5.21,-0.367 7.91,-0.367 16.03,0 19.81,11.875 19.81,25.742 v 101.5 h -11.34 V 399.375"
       style="fill:#ffffff;fill-opacity:1;fill-rule:evenodd;stroke:none"
       transform="matrix(0.13333333,0,0,-0.13333333,0,121.33333)" />
    <path
       id="path26"
       d="m 2245.13,465.426 h -45 v -10.438 h 45 v 10.438"
       style="fill:#ffffff;fill-opacity:1;fill-rule:evenodd;stroke:none"
       transform="matrix(0.13333333,0,0,-0.13333333,0,121.33333)" />
    <path
       id="path27"
       d="m 2116.08,463.625 c 1.8,16.914 12.06,33.109 30.6,33.109 18.35,0 28.97,-16.011 29.52,-33.109 z m 71.45,-9.547 c 0.9,26.102 -10.98,52.199 -40.85,52.199 -29.52,0 -41.94,-24.664 -41.94,-49.14 0,-26.449 12.42,-49.137 41.94,-49.137 23.4,0 35.63,12.242 40.5,33.305 h -11.34 c -3.61,-14.039 -12.61,-23.746 -29.16,-23.746 -21.78,0 -30.43,19.964 -30.6,36.519 h 71.45"
       style="fill:#ffffff;fill-opacity:1;fill-rule:evenodd;stroke:none"
       transform="matrix(0.13333333,0,0,-0.13333333,0,121.33333)" />
    <path
       id="path28"
       d="m 2015.3,410.711 h 11.34 v 54.172 c 0.35,18.176 11.16,31.851 29.15,31.851 18.35,0 23.57,-12.058 23.57,-28.07 v -57.953 h 11.34 v 59.754 c 0,22.133 -7.91,35.812 -34.01,35.812 -13.14,0 -25.56,-7.562 -29.7,-18.722 h -0.35 v 16.019 h -11.34 v -92.863"
       style="fill:#ffffff;fill-opacity:1;fill-rule:evenodd;stroke:none"
       transform="matrix(0.13333333,0,0,-0.13333333,0,121.33333)" />
    <path
       id="path29"
       d="m 1921.35,410.711 h 11.33 v 54.172 c 0.36,18.176 11.16,31.851 29.16,31.851 18.35,0 23.58,-12.058 23.58,-28.07 v -57.953 h 11.35 v 59.754 c 0,22.133 -7.93,35.812 -34.03,35.812 -13.13,0 -25.56,-7.562 -29.7,-18.722 h -0.36 v 16.019 h -11.33 v -92.863"
       style="fill:#ffffff;fill-opacity:1;fill-rule:evenodd;stroke:none"
       transform="matrix(0.13333333,0,0,-0.13333333,0,121.33333)" />
    <path
       id="path30"
       d="m 1837.48,463.625 c 1.8,16.914 12.06,33.109 30.6,33.109 18.35,0 28.97,-16.011 29.51,-33.109 z m 71.45,-9.547 c 0.91,26.102 -10.98,52.199 -40.85,52.199 -29.52,0 -41.94,-24.664 -41.94,-49.14 0,-26.449 12.42,-49.137 41.94,-49.137 23.39,0 35.63,12.242 40.48,33.305 h -11.34 c -3.59,-14.039 -12.59,-23.746 -29.14,-23.746 -21.79,0 -30.42,19.964 -30.6,36.519 h 71.45"
       style="fill:#ffffff;fill-opacity:1;fill-rule:evenodd;stroke:none"
       transform="matrix(0.13333333,0,0,-0.13333333,0,121.33333)" />
    <path
       id="path31"
       d="m 1743.53,410.711 h 11.33 v 35.273 l 18.37,15.301 36.71,-50.574 h 14.22 l -42.3,58.488 39.6,34.375 h -15.12 l -51.48,-44.992 v 80.633 h -11.33 V 410.711"
       style="fill:#ffffff;fill-opacity:1;fill-rule:evenodd;stroke:none"
       transform="matrix(0.13333333,0,0,-0.13333333,0,121.33333)" />
    <path
       id="path32"
       d="m 1713.11,521.035 h 11.34 v 18.18 h -11.34 v -18.18"
       style="fill:#ffffff;fill-opacity:1;fill-rule:evenodd;stroke:none"
       transform="matrix(0.13333333,0,0,-0.13333333,0,121.33333)" />
    <path
       id="path33"
       d="m 1713.11,410.711 h 11.34 v 92.863 h -11.34 v -92.863"
       style="fill:#ffffff;fill-opacity:1;fill-rule:evenodd;stroke:none"
       transform="matrix(0.13333333,0,0,-0.13333333,0,121.33333)" />
    <path
       id="path34"
       d="m 1682.51,521.035 h 11.33 v 18.18 h -11.33 v -18.18"
       style="fill:#ffffff;fill-opacity:1;fill-rule:evenodd;stroke:none"
       transform="matrix(0.13333333,0,0,-0.13333333,0,121.33333)" />
    <path
       id="path35"
       d="m 1682.51,410.711 h 11.33 v 92.863 h -11.33 v -92.863"
       style="fill:#ffffff;fill-opacity:1;fill-rule:evenodd;stroke:none"
       transform="matrix(0.13333333,0,0,-0.13333333,0,121.33333)" />
    <path
       id="path36"
       d="m 1651.91,410.711 h 11.34 v 128.504 h -11.34 V 410.711"
       style="fill:#ffffff;fill-opacity:1;fill-rule:evenodd;stroke:none"
       transform="matrix(0.13333333,0,0,-0.13333333,0,121.33333)" />
    <path
       id="path37"
       d="m 1563.73,429.789 v -19.078 h 7.55 c 0.37,-5.941 -2.33,-14.758 -8.28,-16.926 v -7.73 c 10.81,3.058 15.66,14.039 15.85,24.48 v 19.254 h -15.12"
       style="fill:#ffffff;fill-opacity:1;fill-rule:evenodd;stroke:none"
       transform="matrix(0.13333333,0,0,-0.13333333,0,121.33333)" />
    <path
       id="path38"
       d="m 1538.17,465.426 h -44.99 v -10.438 h 44.99 v 10.438"
       style="fill:#ffffff;fill-opacity:1;fill-rule:evenodd;stroke:none"
       transform="matrix(0.13333333,0,0,-0.13333333,0,121.33333)" />
    <path
       id="path39"
       d="m 1435.04,496.734 c 21.79,0 32.58,-19.793 32.58,-39.597 0,-19.785 -10.79,-39.578 -32.58,-39.578 -21.78,0 -32.58,19.793 -32.58,39.578 0,19.804 10.8,39.597 32.58,39.597 z m 0,9.543 c -28.44,0 -43.91,-22.496 -43.91,-49.14 0,-26.637 15.47,-49.137 43.91,-49.137 28.44,0 43.92,22.5 43.92,49.137 0,26.644 -15.48,49.14 -43.92,49.14"
       style="fill:#ffffff;fill-opacity:1;fill-rule:evenodd;stroke:none"
       transform="matrix(0.13333333,0,0,-0.13333333,0,121.33333)" />
    <path
       id="path40"
       d="m 1301.68,410.711 h 11.34 v 54.172 c 0.36,18.176 11.16,31.851 29.16,31.851 18.36,0 23.57,-12.058 23.57,-28.07 v -57.953 h 11.35 v 59.754 c 0,22.133 -7.92,35.812 -34.03,35.812 -13.13,0 -25.56,-7.562 -29.69,-18.722 h -0.36 v 16.019 h -11.34 v -92.863"
       style="fill:#ffffff;fill-opacity:1;fill-rule:evenodd;stroke:none"
       transform="matrix(0.13333333,0,0,-0.13333333,0,121.33333)" />
    <path
       id="path41"
       d="m 1271.45,521.035 h 11.33 v 18.18 h -11.33 v -18.18"
       style="fill:#ffffff;fill-opacity:1;fill-rule:evenodd;stroke:none"
       transform="matrix(0.13333333,0,0,-0.13333333,0,121.33333)" />
    <path
       id="path42"
       d="m 1271.45,410.711 h 11.33 v 92.863 h -11.33 v -92.863"
       style="fill:#ffffff;fill-opacity:1;fill-rule:evenodd;stroke:none"
       transform="matrix(0.13333333,0,0,-0.13333333,0,121.33333)" />
    <path
       id="path43"
       d="m 1187.21,463.625 c 1.81,16.914 12.07,33.109 30.61,33.109 18.35,0 28.97,-16.011 29.51,-33.109 z m 71.46,-9.547 c 0.9,26.102 -10.98,52.199 -40.85,52.199 -29.52,0 -41.94,-24.664 -41.94,-49.14 0,-26.449 12.42,-49.137 41.94,-49.137 23.39,0 35.63,12.242 40.5,33.305 h -11.36 c -3.58,-14.039 -12.58,-23.746 -29.14,-23.746 -21.78,0 -30.42,19.964 -30.61,36.519 h 71.46"
       style="fill:#ffffff;fill-opacity:1;fill-rule:evenodd;stroke:none"
       transform="matrix(0.13333333,0,0,-0.13333333,0,121.33333)" />
    <path
       id="path44"
       d="m 1093.27,410.711 h 11.34 v 35.273 l 18.36,15.301 36.71,-50.574 h 14.22 l -42.29,58.488 39.59,34.375 h -15.12 l -51.47,-44.992 v 80.633 h -11.34 V 410.711"
       style="fill:#ffffff;fill-opacity:1;fill-rule:evenodd;stroke:none"
       transform="matrix(0.13333333,0,0,-0.13333333,0,121.33333)" />
    <path
       id="path45"
       d="m 999.133,410.711 h 11.347 v 54.172 c 0.36,18.176 11.16,31.851 29.16,31.851 18.37,0 23.58,-12.058 23.58,-28.07 v -57.953 h 11.34 v 59.754 c 0,22.133 -7.93,35.812 -34.02,35.812 -13.14,0 -25.56,-7.562 -29.7,-18.722 h -0.36 v 16.019 h -11.347 v -92.863"
       style="fill:#ffffff;fill-opacity:1;fill-rule:evenodd;stroke:none"
       transform="matrix(0.13333333,0,0,-0.13333333,0,121.33333)" />
    <path
       id="path46"
       d="m 968.906,521.035 h 11.344 v 18.18 h -11.344 v -18.18"
       style="fill:#ffffff;fill-opacity:1;fill-rule:evenodd;stroke:none"
       transform="matrix(0.13333333,0,0,-0.13333333,0,121.33333)" />
    <path
       id="path47"
       d="m 968.906,410.711 h 11.344 v 92.863 h -11.344 v -92.863"
       style="fill:#ffffff;fill-opacity:1;fill-rule:evenodd;stroke:none"
       transform="matrix(0.13333333,0,0,-0.13333333,0,121.33333)" />
    <path
       id="path48"
       d="m 938.309,410.711 h 11.336 V 539.215 H 938.309 V 410.711"
       style="fill:#ffffff;fill-opacity:1;fill-rule:evenodd;stroke:none"
       transform="matrix(0.13333333,0,0,-0.13333333,0,121.33333)" />
    <path
       id="path49"
       d="m 836.262,410.711 h 89.633 v 10.434 h -77.399 v 50.757 h 71.637 v 10.434 h -71.637 v 46.437 h 76.5 v 10.442 H 836.262 V 410.711"
       style="fill:#ffffff;fill-opacity:1;fill-rule:evenodd;stroke:none"
       transform="matrix(0.13333333,0,0,-0.13333333,0,121.33333)" />
    <path
       id="path50"
       d="m 353.074,498.086 c 26.805,3.945 80.258,10.785 142.821,2.676 87.035,-11.012 189.808,-52.899 190.425,-151.719 -2.242,-29.285 -9.679,-44.25 -27.683,-69.781 -4.508,-6.395 -10.02,-13.153 -15.739,-19.438 0.418,2.121 0.34,2.496 1.129,8.52 2.012,15.433 5.063,46.578 -10.879,77 -19.593,39.633 -87.089,64.351 -192.007,62.246 -22.227,22.949 -53.371,55.098 -88.067,90.496"
       style="fill:#ffffff;fill-opacity:1;fill-rule:evenodd;stroke:none"
       transform="matrix(0.13333333,0,0,-0.13333333,0,121.33333)" />
    <path
       id="path51"
       d="m 441.066,407.848 v 0 c 0,0 10.442,-179.078 202,-147.793 0.848,0.066 -17.519,-17.371 -46.746,-35.071 C 566.648,207.016 525.262,192.848 484.48,205.215 360.387,243.5 441.066,407.848 441.066,407.848"
       style="fill:#ffffff;fill-opacity:1;fill-rule:evenodd;stroke:none"
       transform="matrix(0.13333333,0,0,-0.13333333,0,121.33333)" />
  </g>
</svg>
