<svg id="Layer_1" data-name="Layer 1" xmlns="http://www.w3.org/2000/svg" viewBox="0 0 693.01 100.81"><defs><style>.cls-1{fill:#ffffff;}.cls-2{fill:#ffffff;}</style></defs><g id="pi5kYY"><path class="cls-1" d="M636.74,550.4c0-.46-.34-.57-.7-.65-11.24-2.53-16.87-10.33-19.51-20.87a41.9,41.9,0,0,1-1.19-10.29q0-21,0-42a28.12,28.12,0,0,1,4.14-15.46c4.62-7.23,11.56-10.51,19.88-10.83,10.69-.4,21.37.24,32,.49,2.21.06,3.39,1.34,3.43,3.62,0,3.11,0,6.21,0,9.31,0,3.36-1.35,4.72-4.73,4.83-6.86.21-13.72.06-20.58-.21-2.09-.08-4.18-.17-6.27-.13-4.1.07-6.74,2.16-7.92,6.1a17.05,17.05,0,0,0-.74,5.12c0,3.53.08,7.07,0,10.6-.06,1.67.37,2.2,2.12,2.18,11.05-.08,22.1,0,33.14,0,4.26,0,5,.78,5,5.06q0,4.66,0,9.31c0,3-1,4-4.05,4-11.27,0-22.53.06-33.79,0-2,0-2.56.56-2.45,2.51.16,3.17,0,6.35,0,9.52,0,5.91,3.58,9.63,9.47,9.88,8.74.38,17.47-.28,26.2-.44,4.06-.07,5,.83,5,4.88,0,2.89,0,5.78,0,8.66,0,2.57-1.1,3.68-3.66,3.84-4,.23-7.94.39-11.9.63-.58,0-1.32-.33-1.73.45Z" transform="translate(-153.5 -449.6)"/><path class="cls-2" d="M153.5,521a4.87,4.87,0,0,1,3.58-2.46q30.57-6.45,61.13-13c1.4-.3,1.89-.1,1.87,1.48-.08,7.06,0,14.13,0,21.19,0,2.6-.68,3.4-3.33,4L155,545.24c-.49.1-1,.26-1.45.4Z" transform="translate(-153.5 -449.6)"/><path class="cls-1" d="M472.34,483.68v3.67q0,28.47,0,56.95c0,4.31-.87,5.17-5.21,5.17-3.4,0-6.79,0-10.18,0-2.75,0-3.95-1.22-3.95-4q0-45.58,0-91.17c0-2.93,1.13-4,4.09-4,3.4,0,6.79,0,10.19,0a9.74,9.74,0,0,1,9,5.36q14.75,27,29.37,54c1.12,2.06,1.85,4.33,3.11,6.5V455c0-3.83.88-4.71,4.67-4.72,3.62,0,7.23,0,10.84,0,2.71,0,3.8,1.09,3.8,3.84q0,45.79,0,91.6c0,2.54-1.17,3.71-3.71,3.75-3.61,0-7.23.13-10.83,0a10,10,0,0,1-8.76-5.46Q490,516.91,475.31,489.8c-1.07-2-1.8-4.12-2.69-6.19Z" transform="translate(-153.5 -449.6)"/><path class="cls-1" d="M384.09,483.43v61.2c0,3.91-.94,4.84-4.86,4.84h-8.88c-4.88,0-5.55-.65-5.55-5.44V454.85c0-3.71.89-4.58,4.61-4.58,3.18,0,6.35,0,9.53,0a9.84,9.84,0,0,1,9.18,5.43q14.65,26.87,29.26,53.77c1.14,2.11,1.91,4.43,3.14,6.6V454.9c0-3.69.93-4.63,4.58-4.63h10.18c3.74,0,4.66.94,4.67,4.77v89.41c0,4.15-.89,5-5.11,5-3,0-5.93,0-8.89,0a10.28,10.28,0,0,1-9.5-5.69q-14.68-27-29.36-54C386,487.79,385.27,485.59,384.09,483.43Z" transform="translate(-153.5 -449.6)"/><path class="cls-2" d="M733,508c1.48.87,2.87,1.63,4.19,2.49a13.91,13.91,0,0,1,4.82,5.17q7.42,14.19,14.81,28.39c1.86,3.6.69,5.44-3.42,5.47-2.89,0-5.78,0-8.67,0a9.64,9.64,0,0,1-8.75-5q-9-15.32-17.83-30.67a6.89,6.89,0,0,0-6.31-3.8c-1.74,0-3.48.13-5.2,0s-1.87.54-1.87,2c.06,10.89,0,21.79,0,32.69,0,3.85-1,4.81-4.9,4.82h-9.75c-3.75,0-4.68-1-4.69-4.8q0-27.71,0-55.42,0-17.1,0-34.21c0-3.95.86-4.79,4.86-4.79,11.62,0,23.25-.09,34.88,0,8.81.09,16.62,2.79,22.44,9.81a26.91,26.91,0,0,1,5.63,13.62,48.21,48.21,0,0,1-.14,14.44c-1.49,9.79-7.25,15.72-16.53,18.54-1.1.34-2.21.64-3.32,1C733.19,507.68,733.16,507.75,733,508Zm-28.21-28.16c0,3.82,0,7.64,0,11.45,0,1,.14,1.58,1.38,1.57,6.35-.07,12.7.16,19-.13,7.62-.35,12.09-5.38,11.9-12.83-.21-8.16-4.88-13-12.71-13-5.92,0-11.83.06-17.74,0-1.58,0-1.91.52-1.87,2C704.81,472.46,704.75,476.13,704.75,479.81Z" transform="translate(-153.5 -449.6)"/><path class="cls-1" d="M838.11,549.47c-1.59,0-3.18,0-4.76,0a7.69,7.69,0,0,1-7.73-5.75q-2.8-9.19-5.5-18.44c-.34-1.19-.59-1.74-1.94-.94a7,7,0,0,1-3.6.52h-21a8,8,0,0,1-3.62-.52c-1.4-.7-1.9-.32-2.3,1.12-1.61,5.76-3.33,11.5-5,17.24-1.41,4.81-4,6.77-8.95,6.78-3,0-6.07,0-9.1,0s-3.94-1.08-3.06-4q6.72-22.59,13.51-45.16,5.06-16.87,10.1-33.77a26.61,26.61,0,0,1,5.14-9.91,17.44,17.44,0,0,1,27.33.36c3,3.74,4.51,8.15,5.86,12.67q11.13,37.29,22.33,74.58c.16.55.35,1.1.5,1.66.62,2.41-.23,3.54-2.78,3.6C841.72,549.51,839.92,549.47,838.11,549.47Zm-34.38-41.58h0c3.25,0,6.49,0,9.73,0,.91,0,1.52,0,1.13-1.28-2.89-9.58-5.71-19.18-8.57-28.76-.31-1-.72-2.2-2-2.24s-1.92,1.08-2.26,2.23q-4.23,14.28-8.45,28.57c-.35,1.16,0,1.52,1.15,1.5C797.53,507.85,800.63,507.89,803.73,507.89Z" transform="translate(-153.5 -449.6)"/><path class="cls-1" d="M543.67,450.27H548c4.35,0,7,2,8.18,6.26q4.35,15.72,8.65,31.47l7.5,27.32a5.62,5.62,0,0,0,.27.82c.32.8.56,1.74,1.64,1.77s1.36-.93,1.65-1.73.41-1.38.6-2.08q8-28.86,16-57.72c1.12-4.05,3.83-6.09,8.06-6.11,3.1,0,6.21,0,9.31,0,2.94,0,3.77,1.09,2.91,4-2,6.76-4.12,13.51-6.19,20.26Q596.5,507.26,586.45,540c-2,6.49-5.78,9.46-12.24,9.45-6.2,0-10.59-3.31-12.44-9.42q-12.94-42.61-25.85-85.25c-1.11-3.69-.47-4.53,3.42-4.53Z" transform="translate(-153.5 -449.6)"/><path class="cls-1" d="M259.75,507.86q0-17.43,0-34.85a40,40,0,0,1,.5-6.47c1.43-8.56,7.27-12.73,15-14.86,7.53-2.07,15.25-2.27,23-2,5.77.23,11.53.71,17.26,1.48,3.8.51,4.51,1.3,4.51,5.11,0,2.59,0,5.19,0,7.79,0,3.4-1.21,4.47-4.67,4.33-7.65-.31-15.3-.57-22.94-.9-8.8-.38-13.17,2.46-12.69,12.19.17,3.46.12,6.93,0,10.39-.06,1.66.47,2,2.07,2,10.62-.07,21.23,0,31.85,0,3.89,0,4.71.82,4.72,4.71,0,3,0,5.92,0,8.88,0,3.12-1.07,4.14-4.19,4.15-10.76,0-21.52,0-32.28,0-1.74,0-2.17.46-2.16,2.16.07,10.89,0,21.79,0,32.68,0,3.94-.91,4.82-4.85,4.83-3.47,0-6.93,0-10.4,0-2.78,0-4-1.17-4-4,0-12.55-.78-25.11-.78-37.66Z" transform="translate(-153.5 -449.6)"/><path class="cls-2" d="M351.87,500v44.82c0,3.31-1.17,4.59-4.52,4.68-3.54.09-7.08.07-10.62,0a4.18,4.18,0,0,1-4.2-4.26q0-45.47,0-90.94c0-2.84,1.12-4,3.91-4q5.74,0,11.48,0c2.87,0,3.93,1.15,3.94,4.2q0,16.47,0,32.92Z" transform="translate(-153.5 -449.6)"/><path class="cls-1" d="M238.06,475.73c0,3.25,0,6.5,0,9.74s-.47,3.94-3.78,4.65q-28.68,6.09-57.37,12.14c-1.68.36-3.78,1.62-4.95.72s-.36-3.25-.37-5c-.06-5.7,0-11.4,0-17.1,0-3.11.66-3.92,3.72-4.57q30.38-6.47,60.74-12.94c1.67-.36,2.13,0,2.07,1.71C238,468.66,238.07,472.2,238.06,475.73Z" transform="translate(-153.5 -449.6)"/></g></svg>